HIERARCHY
ROOT Hips
{
	OFFSET	0.00	0.00	0.00
	CHANNELS 6 Xposition Yposition Zposition Zrotation Xrotation Yrotation
	JOINT LeftUpLeg
	{
		OFFSET	 0.126116	-0.014019	-0.065224
		CHANNELS 3 Zrotation Xrotation Yrotation
		JOINT LeftLeg
		{
			OFFSET	 0.000000	 0.000000	 0.569914
			CHANNELS 3 Zrotation Xrotation Yrotation
			JOINT LeftFoot
			{
				OFFSET	 0.000000	 0.000000	 0.544423
				CHANNELS 3 Zrotation Xrotation Yrotation
				JOINT LeftToeBase
				{
					OFFSET	 0.000000	 0.000000	 0.207117
					CHANNELS 3 Zrotation Xrotation Yrotation
					End Site
					{
						OFFSET	 0.000000	 0.000000	 0.207117
					}
				}
			}
		}
	}
	JOINT RightUpLeg
	{
		OFFSET	-0.124023	-0.008373	-0.065224
		CHANNELS 3 Zrotation Xrotation Yrotation
		JOINT RightLeg
		{
			OFFSET	 0.000000	 0.000000	 0.570047
			CHANNELS 3 Zrotation Xrotation Yrotation
			JOINT RightFoot
			{
				OFFSET	 0.000000	 0.000000	 0.544354
				CHANNELS 3 Zrotation Xrotation Yrotation
				JOINT RightToeBase
				{
					OFFSET	 0.000000	 0.000000	 0.207540
					CHANNELS 3 Zrotation Xrotation Yrotation
					End Site
					{
						OFFSET	 0.000000	 0.000000	 0.207540
					}
				}
			}
		}
	}
	JOINT Spine
	{
		OFFSET	 0.000184	-0.007763	 0.117403
		CHANNELS 3 Zrotation Xrotation Yrotation
		JOINT Spine1
		{
			OFFSET	 0.000000	 0.000000	 0.137269
			CHANNELS 3 Zrotation Xrotation Yrotation
			JOINT Spine2
			{
				OFFSET	 0.000000	 0.000000	 0.156879
				CHANNELS 3 Zrotation Xrotation Yrotation
				JOINT LeftShoulder
				{
					OFFSET	 0.080501	-0.002496	 0.160144
					CHANNELS 3 Zrotation Xrotation Yrotation
					JOINT LeftArm
					{
						OFFSET	 0.000000	 0.000000	 0.164363
						CHANNELS 3 Zrotation Xrotation Yrotation
						JOINT LeftForeArm
						{
							OFFSET	 0.000000	 0.000000	 0.364576
							CHANNELS 3 Zrotation Xrotation Yrotation
							JOINT LeftHand
							{
								OFFSET	 0.000000	 0.000000	 0.360812
								CHANNELS 3 Zrotation Xrotation Yrotation
								JOINT LeftHandIndex1
								{
									OFFSET	 0.000000	 0.000000	 0.086006
									CHANNELS 3 Zrotation Xrotation Yrotation
									JOINT LeftHandIndex2
									{
										OFFSET	 0.000000	 0.000000	 0.047236
										CHANNELS 3 Zrotation Xrotation Yrotation
										JOINT LeftHandIndex3
										{
											OFFSET	-0.004284	-0.000551	 0.038166
											CHANNELS 3 Zrotation Xrotation Yrotation
											End Site
											{
												OFFSET	-0.004284	-0.000551	 0.038166
											}
										}
									}
								}
							}
						}
					}
				}
				JOINT Neck
				{
					OFFSET	 0.000000	 0.000000	 0.176489
					CHANNELS 3 Zrotation Xrotation Yrotation
					JOINT Head
					{
						OFFSET	 0.000000	-0.001747	 0.077940
						CHANNELS 3 Zrotation Xrotation Yrotation
						End Site
						{
							OFFSET	 0.000000	-0.001747	 0.077940
						}
					}
				}
				JOINT RightShoulder
				{
					OFFSET	-0.080363	 0.000306	 0.159706
					CHANNELS 3 Zrotation Xrotation Yrotation
					JOINT RightArm
					{
						OFFSET	 0.000000	 0.000000	 0.164196
						CHANNELS 3 Zrotation Xrotation Yrotation
						JOINT RightForeArm
						{
							OFFSET	 0.000000	 0.000000	 0.365611
							CHANNELS 3 Zrotation Xrotation Yrotation
							JOINT RightHand
							{
								OFFSET	 0.000000	 0.000000	 0.360648
								CHANNELS 3 Zrotation Xrotation Yrotation
								JOINT RightHandIndex1
								{
									OFFSET	 0.000000	 0.000000	 0.069977
									CHANNELS 3 Zrotation Xrotation Yrotation
									JOINT RightHandIndex2
									{
										OFFSET	 0.000000	 0.000000	 0.052305
										CHANNELS 3 Zrotation Xrotation Yrotation
										JOINT RightHandIndex3
										{
											OFFSET	 0.009002	-0.000782	 0.042196
											CHANNELS 3 Zrotation Xrotation Yrotation
											End Site
											{
												OFFSET	 0.009002	-0.000782	 0.042196
											}
										}
									}
								}
							}
						}
					}
				}
			}
		}
	}
}
MOTION
Frames:    4
Frame Time: 0.03333334
-0.043302	 0.234931	 1.019461	 0.881556	 34.769680	-6.604615	-43.537960	-85.336910	 139.445500	 8.692617	-75.577690	 8.826684	-34.557660	 77.347080	 41.908120	-2.385833	 28.452760	 0.000004	 92.025960	-75.555470	-98.281840	-20.810850	-77.969000	-15.336880	 57.192970	 75.143500	-53.273160	 2.384659	 28.388700	-0.000001	-2.703923	 15.182930	 1.922212	-3.176104	 21.894010	 4.588395	 1.522947	-0.523433	 1.470280	-99.219860	 68.208950	 156.604500	 12.469920	-4.706286	-41.615790	-4.487411	 11.916370	-37.622920	-26.604450	-26.919800	-19.069720	-2.027600	 6.559038	 9.033609	-5.188889	 0.308190	 3.541030	-5.234859	 0.342567	 0.430617	 0.551676	 18.609080	-6.498300	 3.820559	-27.704130	 1.284403	 97.495090	 64.677470	-158.975500	-1.686267	 3.202439	 45.457330	-6.960410	 0.413875	 30.918250	 10.167770	-25.931210	 14.156970	 1.803333	 3.979147	-15.098590	 4.898592	 3.004813	-9.310344	 5.224449	 0.395017	 2.014677
-0.042803	 0.234540	 1.025830	 0.600874	 34.285720	-6.229526	-39.280460	-84.289960	 143.737400	 7.910492	-74.840450	 8.041121	-34.105880	 77.106770	 41.390410	-2.385832	 28.452790	-0.000001	 87.731940	-75.607300	-102.756700	-19.927170	-77.077570	-14.422350	 55.713020	 75.007760	-51.684040	 2.384659	 28.388700	-0.000001	-2.833689	 15.169340	 1.929133	-3.154821	 22.242700	 4.635193	 1.913523	-1.096124	 1.212998	-99.107610	 68.194900	 156.969800	 12.357360	-3.777848	-42.000000	-4.330795	 11.886470	-37.858830	-27.515100	-28.585190	-19.580200	-2.027600	 6.559038	 9.033609	-5.188889	 0.308190	 3.541030	-5.234859	 0.342567	 0.430617	 0.216179	 16.841150	-5.652980	 3.920216	-26.009120	 0.891953	 97.403080	 64.621960	-159.257400	-1.918938	 3.188780	 45.453780	-6.674846	 0.592796	 31.251420	 10.886110	-27.671760	 15.037570	 1.803333	 3.979147	-15.098590	 4.898592	 3.004813	-9.310344	 5.224449	 0.395017	 2.014677
-0.042259	 0.234145	 1.032912	 0.389489	 33.756180	-5.895154	-36.064380	-83.113960	 147.075800	 7.265138	-73.968040	 7.386290	-33.501240	 76.801410	 40.646490	-2.385832	 28.452790	-0.000001	 82.952160	-75.547070	-107.658100	-19.085710	-76.094680	-13.546200	 54.062070	 74.843060	-49.929970	 2.384659	 28.388700	-0.000001	-2.960325	 15.167860	 1.942520	-3.106261	 22.600700	 4.634501	 2.253353	-1.705068	 0.973677	-98.908700	 68.340080	 157.363700	 12.292470	-2.621156	-42.530190	-4.155039	 11.828860	-38.071980	-28.577050	-30.441780	-20.267000	-2.027600	 6.559038	 9.033609	-5.188889	 0.308190	 3.541030	-5.234859	 0.342567	 0.430617	-0.086966	 14.759920	-4.961604	 4.042893	-23.998920	 0.568327	 97.287210	 64.473720	-159.689000	-2.235714	 3.033220	 45.541170	-6.420230	 0.758560	 31.630450	 11.544020	-29.429840	 15.988320	 1.803333	 3.979147	-15.098590	 4.898592	 3.004813	-9.310344	 5.224449	 0.395017	 2.014677
-0.041644	 0.233757	 1.040423	 0.242334	 33.195010	-5.599547	-33.641560	-81.858090	 149.692800	 6.747880	-73.006810	 6.854662	-32.762530	 76.442790	 39.719350	-2.385832	 28.452790	-0.000001	 77.928960	-75.355890	-112.750100	-18.324950	-75.059820	-12.747970	 52.314210	 74.650520	-48.078910	 2.384659	 28.388700	-0.000001	-3.082800	 15.171360	 1.956001	-3.033666	 22.936890	 4.595644	 2.538933	-2.323677	 0.752767	-98.645510	 68.609620	 157.776700	 12.313270	-1.265258	-43.156830	-3.967685	 11.748130	-38.257660	-29.786910	-32.449170	-21.118990	-2.027600	 6.559038	 9.033609	-5.188889	 0.308190	 3.541030	-5.234859	 0.342567	 0.430617	-0.357862	 12.457000	-4.403265	 4.176641	-21.764620	 0.295590	 97.151600	 64.254000	-160.232100	-2.648454	 2.790532	 45.671790	-6.194537	 0.913599	 32.083130	 12.185070	-31.194230	 16.999830	 1.803333	 3.979147	-15.098590	 4.898592	 3.004813	-9.310344	 5.224449	 0.395017	 2.014677
